<svg width="50" height="50" viewBox="0 0 50 50" fill="none" xmlns="http://www.w3.org/2000/svg">
<path d="M36.8751 18.125C38.4376 17.1875 39.5314 15.7812 40.1564 14.0625C40.7814 12.3438 40.7814 10.625 40.3126 8.90625C39.8439 7.1875 38.7501 5.78125 37.3439 4.6875C35.9376 3.59375 34.0626 3.125 32.3439 3.125H17.9689C16.0939 3.125 14.3751 3.75 12.9689 4.6875C11.2501 5.78125 10.3126 7.34375 9.68765 8.90625C9.2189 10.625 9.2189 12.5 9.8439 14.0625C10.4689 15.7812 11.5626 17.1875 13.1251 18.125C12.0314 18.9063 10.9376 19.8438 10.3126 21.0938C9.68765 22.3438 9.37515 23.5938 9.37515 25C9.37515 26.4062 9.68765 27.6562 10.3126 28.9062C10.9376 30.1562 11.8751 31.0938 13.1251 31.875C11.5626 32.8125 10.4689 34.2188 9.8439 35.9375C9.2189 37.6562 9.2189 39.375 9.68765 41.0938C10.1564 42.8125 11.2501 44.2188 12.8126 45.3125C14.2189 46.4062 16.0939 46.875 17.8126 46.875C20.0001 46.875 22.1876 45.9375 23.9064 44.5312C25.4689 42.9688 26.4064 40.9375 26.4064 38.75V31.25C27.9689 32.6562 30.0001 33.4375 32.0314 33.4375H32.1876C34.0626 33.4375 35.7814 32.8125 37.1876 31.875C38.5939 30.7812 39.6876 29.375 40.1564 27.6563C40.6251 25.9375 40.6251 24.2188 40.0001 22.5C39.5314 20.4688 38.2814 19.0625 36.8751 18.125ZM26.4064 5.78125H32.1876C32.9689 5.78125 33.7501 5.78125 34.3751 6.09375C35.1564 6.40625 35.7814 6.71875 36.2501 7.34375C36.8751 7.8125 37.1876 8.4375 37.5001 9.21875C37.8126 10 37.9689 10.625 37.9689 11.4062C37.9689 12.1875 37.8126 12.9688 37.5001 13.5938C37.1876 14.2188 36.7189 14.8437 36.2501 15.4687C35.6251 15.9375 35.0001 16.4062 34.3751 16.7188C33.5939 17.0312 32.8126 17.0312 32.1876 17.0312H26.4064V5.78125ZM17.8126 5.78125H23.5939V16.7188H17.8126C16.4064 16.7188 15.0001 16.0938 14.0626 15C12.9689 14.0625 12.5001 12.6562 12.5001 11.25C12.5001 9.84375 13.1251 8.4375 14.0626 7.5C15.0001 6.5625 16.4064 5.9375 17.8126 5.78125ZM12.1876 25C12.1876 23.5938 12.8126 22.1875 13.9064 21.0938C15.0001 20 16.4064 19.5312 17.9689 19.5312H23.7501V30.4688H17.9689C16.4064 30.4688 15.0001 29.8438 13.9064 28.9062C12.8126 27.8125 12.1876 26.4062 12.1876 25ZM23.5939 38.5938C23.5939 40.1562 22.9689 41.5625 21.8751 42.5C20.7814 43.5938 19.3751 44.0625 17.8126 44.0625C17.0314 44.0625 16.2501 44.0625 15.6251 43.75C14.8439 43.4375 14.2189 43.125 13.7501 42.6562C13.1251 42.1875 12.8126 41.5625 12.5001 40.7812C12.1876 40.1562 12.0314 39.375 12.0314 38.5938C12.0314 37.8125 12.1876 37.0312 12.5001 36.4062C12.8126 35.7812 13.2814 35.1562 13.7501 34.5312C14.3751 34.0625 15.0001 33.5937 15.6251 33.2812C16.4064 32.9687 17.1876 32.9688 17.8126 32.9688H23.5939V38.5938ZM32.1876 30.4688H32.0314C30.6251 30.4688 29.2189 29.8438 28.2814 28.75C27.3439 27.6562 26.7189 26.4062 26.7189 25C26.7189 23.5938 27.3439 22.1875 28.2814 21.25C29.2189 20.1562 30.6251 19.6875 32.0314 19.5312H32.1876C32.9689 19.5312 33.7501 19.5312 34.3751 19.8438C35.1564 20.1562 35.7814 20.4688 36.2501 21.0938C36.8751 21.5625 37.1876 22.1875 37.5001 22.9688C37.8126 23.5938 37.9689 24.375 37.9689 25.1562C37.9689 25.9375 37.8126 26.7188 37.5001 27.3438C37.1876 27.9688 36.7189 28.5938 36.2501 29.2188C35.6251 29.6875 35.0001 30.1562 34.3751 30.4688H32.1876Z" fill="#167C80"/>
</svg>
