<svg width="50" height="50" viewBox="0 0 50 50" fill="none" xmlns="http://www.w3.org/2000/svg">
<path d="M25.0003 45.8333C36.5066 45.8333 45.8337 36.5062 45.8337 25C45.8337 13.4937 36.5066 4.16663 25.0003 4.16663C13.4941 4.16663 4.16699 13.4937 4.16699 25C4.16699 36.5062 13.4941 45.8333 25.0003 45.8333Z" stroke="#167C80" stroke-width="3.125" stroke-linecap="round" stroke-linejoin="round"/>
<path d="M29.8605 39.5833V35.7021C29.9125 35.0563 29.823 34.4104 29.598 33.8C29.3714 33.1892 29.0162 32.6343 28.5563 32.1729C32.9167 31.7 37.5 30.0896 37.5 22.7063C37.496 20.8085 36.7481 18.9879 35.4167 17.6354C36.0503 15.9856 36.0054 14.1522 35.2917 12.5354C35.2917 12.5354 33.6521 12.0625 29.8605 14.5375C26.6746 13.6976 23.3255 13.6976 20.1396 14.5375C16.348 12.0625 14.7084 12.5375 14.7084 12.5375C13.9958 14.1531 13.9509 15.9848 14.5834 17.6333C13.2428 18.9958 12.4941 20.8323 12.5 22.7438C12.5 30.075 17.0834 31.6833 21.4438 32.2104C20.9889 32.6678 20.6366 33.2167 20.4105 33.8208C20.1859 34.4204 20.0935 35.0614 20.1396 35.7V39.5833" stroke="#167C80" stroke-width="3.125" stroke-linecap="round" stroke-linejoin="round"/>
<path d="M20.1399 36.8791C15.9732 38.1937 12.5003 36.8791 10.417 32.8208" stroke="#167C80" stroke-width="3.125" stroke-linecap="round" stroke-linejoin="round"/>
</svg>
