<svg width="50" height="50" viewBox="0 0 50 50" fill="none" xmlns="http://www.w3.org/2000/svg">
<path d="M40.625 6.25H9.375C8.5462 6.25 7.75134 6.57924 7.16529 7.16529C6.57924 7.75134 6.25 8.5462 6.25 9.375V40.625C6.25 41.4538 6.57924 42.2487 7.16529 42.8347C7.75134 43.4208 8.5462 43.75 9.375 43.75H40.625C41.4538 43.75 42.2487 43.4208 42.8347 42.8347C43.4208 42.2487 43.75 41.4538 43.75 40.625V9.375C43.75 8.5462 43.4208 7.75134 42.8347 7.16529C42.2487 6.57924 41.4538 6.25 40.625 6.25Z" stroke="#167C80" stroke-width="4.16667"/>
<path d="M14.583 15.625V34.375" stroke="#167C80" stroke-width="4.16667" stroke-linecap="round" stroke-linejoin="round"/>
<path d="M16.6663 26.0417C19.7913 26.0417 23.958 25.2083 23.958 20.8333C23.958 16.4583 19.7913 15.625 16.6663 15.625H14.583V26.0417H16.6663Z" stroke="#167C80" stroke-width="4.16667" stroke-linecap="round" stroke-linejoin="round"/>
<path d="M35.417 21.9011C34.3753 21.9011 29.167 21.3823 29.167 25.0125C29.167 28.6438 35.417 27.6063 35.417 31.2375C35.417 34.8677 29.167 34.349 29.167 34.349" stroke="#167C80" stroke-width="4.16667" stroke-linecap="round" stroke-linejoin="round"/>
</svg>
