<svg width="50" height="50" viewBox="0 0 50 50" fill="none" xmlns="http://www.w3.org/2000/svg">
<path d="M41.9688 12.7021L26.7901 3.59861C26.2449 3.28779 25.6281 3.12433 25.0005 3.12433C24.373 3.12433 23.7562 3.28779 23.211 3.59861L8.0313 12.7012C7.48427 13.0364 7.03294 13.507 6.72091 14.0676C6.40888 14.6282 6.24671 15.2598 6.25005 15.9013V34.082C6.24677 34.724 6.40895 35.3559 6.72094 35.917C7.03294 36.478 7.48423 36.9492 8.0313 37.2851L12.0118 39.6621L12.0342 39.6748C14.044 40.7031 14.8135 40.7031 15.7051 40.7031C18.8438 40.7031 20.794 38.6719 20.794 35.4013V17.7734C20.7958 17.5533 20.7103 17.3415 20.5561 17.1844C20.402 17.0274 20.1918 16.9378 19.9717 16.9355H17.7862C17.5661 16.9378 17.3559 17.0274 17.2018 17.1844C17.0476 17.3415 16.9621 17.5533 16.9639 17.7734V35.4013C16.9719 35.6537 16.9145 35.9038 16.7973 36.1275C16.68 36.3511 16.507 36.5407 16.295 36.6777C15.7188 37.0293 14.8819 36.9551 13.9376 36.4678L10.1231 34.1719C10.1085 34.1619 10.0966 34.1485 10.0884 34.1328C10.0802 34.1171 10.076 34.0997 10.0762 34.082V16.1582C10.0768 16.1376 10.0824 16.1174 10.0924 16.0994C10.1025 16.0814 10.1167 16.0661 10.1338 16.0547L24.962 6.97264C24.973 6.96713 24.9852 6.96426 24.9976 6.96426C25.01 6.96426 25.0222 6.96713 25.0333 6.97264L39.8702 16.0547C39.887 16.067 39.9007 16.0832 39.9101 16.1019C39.9194 16.1205 39.9242 16.1412 39.9239 16.1621V34.082C39.9242 34.1005 39.9205 34.1189 39.9129 34.1358C39.9053 34.1527 39.894 34.1677 39.8799 34.1797L25.0303 43.0322C25.005 43.041 24.9775 43.041 24.9522 43.0322L21.1602 40.7803C21.0476 40.7067 20.9176 40.6642 20.7833 40.6572C20.649 40.6501 20.5152 40.6788 20.3956 40.7402L20.3624 40.7597C19.3155 41.3799 19.0342 41.541 18.0635 41.8945C17.9053 41.9521 17.5333 42.0898 17.501 42.458C17.4688 42.8261 17.8223 43.0879 18.1368 43.2705L23.2051 46.3828C23.7452 46.7063 24.3627 46.8774 24.9922 46.8779H25.0489C25.6626 46.8683 26.2631 46.6975 26.7901 46.3828L41.9688 37.2881C42.5156 36.9511 42.9666 36.4793 43.2785 35.9179C43.5904 35.3564 43.7528 34.7243 43.75 34.082V15.9013C43.7531 15.26 43.5908 14.6286 43.2788 14.0682C42.9668 13.5078 42.5156 13.0373 41.9688 12.7021Z" fill="#167C80"/>
<path d="M30.0665 31.0596C26.4249 31.0596 25.6486 30.042 25.4181 28.3994C25.3921 28.2038 25.2968 28.0241 25.1495 27.8929C25.0022 27.7617 24.8126 27.6878 24.6154 27.6846H22.6818C22.4638 27.6892 22.2566 27.7799 22.1054 27.937C21.9543 28.094 21.8715 28.3045 21.8751 28.5225C21.8751 29.9463 22.3751 34.5938 30.0704 34.5938C32.4513 34.5938 34.4318 34.0371 35.796 32.9834C37.1603 31.9297 37.8907 30.3965 37.8907 28.5693C37.8907 24.9023 35.4982 23.8984 30.7863 23.2422C25.9962 22.5762 25.9962 22.2373 25.9962 21.4951C25.9962 20.9609 25.9962 19.71 29.4591 19.71C31.923 19.71 33.2423 20.0215 33.6642 21.6631C33.7015 21.8451 33.7999 22.0089 33.9431 22.1273C34.0862 22.2458 34.2655 22.3118 34.4513 22.3145H36.3917C36.5061 22.3133 36.6189 22.2878 36.7226 22.2397C36.8263 22.1915 36.9186 22.1218 36.9933 22.0352C37.1425 21.861 37.2169 21.635 37.2003 21.4062C36.9493 17.9346 34.4113 16.1738 29.462 16.1738C24.964 16.1738 22.2794 18.2002 22.2794 21.5938C22.2794 25.3145 25.0616 26.3662 29.2413 26.8018C34.1241 27.3066 34.1241 28.043 34.1241 28.6934C34.1271 29.707 33.7062 31.0596 30.0665 31.0596Z" fill="#167C80"/>
</svg>
