<svg width="60" height="60" viewBox="0 0 60 60" fill="none" xmlns="http://www.w3.org/2000/svg">
<circle cx="30" cy="30" r="30" fill="#FF8B8B"/>
<path d="M21.6035 37.6699C21.877 39.6426 22.4141 41.1172 23.2148 42.0938C24.6797 43.8711 27.1895 44.7598 30.7441 44.7598C32.873 44.7598 34.6016 44.5254 35.9297 44.0566C38.4492 43.1582 39.709 41.4883 39.709 39.0469C39.709 37.6211 39.084 36.5176 37.834 35.7363C36.584 34.9746 34.6211 34.3008 31.9453 33.7148L27.375 32.6895C22.8828 31.6738 19.7773 30.5703 18.0586 29.3789C15.1484 27.3867 13.6934 24.2715 13.6934 20.0332C13.6934 16.166 15.0996 12.9531 17.9121 10.3945C20.7246 7.83594 24.8555 6.55664 30.3047 6.55664C34.8555 6.55664 38.7324 7.76758 41.9355 10.1895C45.1582 12.5918 46.8477 16.0879 47.0039 20.6777H38.332C38.1758 18.0801 37.043 16.2344 34.9336 15.1406C33.5273 14.418 31.7793 14.0566 29.6895 14.0566C27.3652 14.0566 25.5098 14.5254 24.123 15.4629C22.7363 16.4004 22.043 17.709 22.043 19.3887C22.043 20.9316 22.7266 22.084 24.0938 22.8457C24.9727 23.3535 26.8477 23.9492 29.7188 24.6328L37.1602 26.4199C40.4219 27.2012 42.8828 28.2461 44.543 29.5547C47.1211 31.5859 48.4102 34.5254 48.4102 38.373C48.4102 42.3184 46.8965 45.5996 43.8691 48.2168C40.8613 50.8145 36.6035 52.1133 31.0957 52.1133C25.4707 52.1133 21.0469 50.834 17.8242 48.2754C14.6016 45.6973 12.9902 42.1621 12.9902 37.6699H21.6035Z" fill="white"/>
</svg>
