<svg width="50" height="50" viewBox="0 0 50 50" fill="none" xmlns="http://www.w3.org/2000/svg">
<path d="M25.0003 31.2498C26.6878 31.2498 28.1253 30.6248 29.3962 29.3957C30.6253 28.1248 31.2503 26.6873 31.2503 24.9998C31.2503 23.3123 30.6253 21.8748 29.3962 20.604C28.1253 19.3748 26.6878 18.7498 25.0003 18.7498C23.3128 18.7498 21.8753 19.3748 20.6045 20.604C19.3753 21.8748 18.7503 23.3123 18.7503 24.9998C18.7503 26.6873 19.3753 28.1248 20.6045 29.3957C21.8753 30.6248 23.3128 31.2498 25.0003 31.2498ZM25.0003 4.1665C30.7295 4.1665 35.6253 6.24984 39.6878 10.3123C43.7503 14.3748 45.8337 19.2707 45.8337 24.9998V28.0207C45.8337 30.104 45.1045 31.8748 43.7503 33.3332C42.292 34.729 40.6253 35.4165 38.542 35.4165C36.042 35.4165 33.9795 34.3748 32.417 32.2915C30.3337 34.3748 27.8753 35.4165 25.0003 35.4165C22.1462 35.4165 19.6878 34.3748 17.6253 32.3748C15.6253 30.3123 14.5837 27.8748 14.5837 24.9998C14.5837 22.1457 15.6253 19.6873 17.6253 17.6248C19.6878 15.6248 22.1462 14.5832 25.0003 14.5832C27.8753 14.5832 30.3128 15.6248 32.3753 17.6248C34.3753 19.6873 35.417 22.1457 35.417 24.9998V28.0207C35.417 28.8748 35.7503 29.6248 36.3753 30.2707C37.0003 30.9165 37.7295 31.2498 38.542 31.2498C39.417 31.2498 40.1462 30.9165 40.7712 30.2707C41.3962 29.6248 41.667 28.8748 41.667 28.0207V24.9998C41.667 20.4373 40.0628 16.5207 36.7712 13.229C33.4795 9.93734 29.5628 8.33317 25.0003 8.33317C20.4378 8.33317 16.5212 9.93734 13.2295 13.229C9.93783 16.5207 8.33366 20.4373 8.33366 24.9998C8.33366 29.5623 9.93783 33.479 13.2295 36.7707C16.5212 40.0623 20.4378 41.6665 25.0003 41.6665H35.417V45.8332H25.0003C19.2712 45.8332 14.3753 43.7498 10.3128 39.6873C6.25032 35.6248 4.16699 30.729 4.16699 24.9998C4.16699 19.2707 6.25032 14.3748 10.3128 10.3123C14.3753 6.24984 19.2712 4.1665 25.0003 4.1665Z" fill="#167C80"/>
</svg>
