<svg width="50" height="50" viewBox="0 0 50 50" fill="none" xmlns="http://www.w3.org/2000/svg">
<path d="M25.0003 21.0625C27.1462 21.0625 28.8962 22.8125 28.8962 25C28.8962 27.0834 27.1462 28.8542 25.0003 28.8542C22.8545 28.8542 21.1045 27.0834 21.1045 25C21.1045 22.8125 22.8545 21.0625 25.0003 21.0625ZM15.3545 41.6667C16.667 42.4584 19.542 41.25 22.8545 38.125C21.7712 36.8959 20.7087 35.5625 19.7087 34.1667C18.0298 34.006 16.3608 33.7557 14.7087 33.4167C13.6462 37.875 14.042 40.9375 15.3545 41.6667ZM16.8337 29.7084L16.2295 28.6459C16.0003 29.25 15.7712 29.8542 15.6253 30.4375C16.1878 30.5625 16.8128 30.6667 17.4587 30.7709L16.8337 29.7084ZM30.4587 28.125L32.1462 25L30.4587 21.875C29.8337 20.7709 29.167 19.7917 28.5628 18.8125C27.4378 18.75 26.2503 18.75 25.0003 18.75C23.7503 18.75 22.5628 18.75 21.4378 18.8125C20.8337 19.7917 20.167 20.7709 19.542 21.875L17.8545 25L19.542 28.125C20.167 29.2292 20.8337 30.2084 21.4378 31.1875C22.5628 31.25 23.7503 31.25 25.0003 31.25C26.2503 31.25 27.4378 31.25 28.5628 31.1875C29.167 30.2084 29.8337 29.2292 30.4587 28.125ZM25.0003 14.125C24.6045 14.5834 24.1878 15.0625 23.7712 15.625H26.2295C25.8128 15.0625 25.3962 14.5834 25.0003 14.125ZM25.0003 35.875C25.3962 35.4167 25.8128 34.9375 26.2295 34.375H23.7712C24.1878 34.9375 24.6045 35.4167 25.0003 35.875ZM34.6253 8.33336C33.3337 7.54169 30.4587 8.75002 27.1462 11.875C28.2295 13.1042 29.292 14.4375 30.292 15.8334C32.0003 16 33.6878 16.25 35.292 16.5834C36.3545 12.125 35.9587 9.06252 34.6253 8.33336ZM33.167 20.2917L33.7712 21.3542C34.0003 20.75 34.2295 20.1459 34.3753 19.5625C33.8128 19.4375 33.1878 19.3334 32.542 19.2292L33.167 20.2917ZM36.1878 5.60419C39.2503 7.35419 39.5837 11.9584 38.292 17.3334C43.5837 18.8959 47.3962 21.4792 47.3962 25C47.3962 28.5209 43.5837 31.1042 38.292 32.6667C39.5837 38.0417 39.2503 42.6459 36.1878 44.3959C33.1462 46.1459 29.0003 44.1459 25.0003 40.3334C21.0003 44.1459 16.8545 46.1459 13.792 44.3959C10.7503 42.6459 10.417 38.0417 11.7087 32.6667C6.41699 31.1042 2.60449 28.5209 2.60449 25C2.60449 21.4792 6.41699 18.8959 11.7087 17.3334C10.417 11.9584 10.7503 7.35419 13.792 5.60419C16.8545 3.85419 21.0003 5.85419 25.0003 9.66669C29.0003 5.85419 33.1462 3.85419 36.1878 5.60419ZM35.5837 25C36.292 26.5625 36.917 28.125 37.4378 29.7084C41.8128 28.3959 44.2712 26.5209 44.2712 25C44.2712 23.4792 41.8128 21.6042 37.4378 20.2917C36.917 21.875 36.292 23.4375 35.5837 25ZM14.417 25C13.7087 23.4375 13.0837 21.875 12.5628 20.2917C8.18783 21.6042 5.72949 23.4792 5.72949 25C5.72949 26.5209 8.18783 28.3959 12.5628 29.7084C13.0837 28.125 13.7087 26.5625 14.417 25ZM33.167 29.7084L32.542 30.7709C33.1878 30.6667 33.8128 30.5625 34.3753 30.4375C34.2295 29.8542 34.0003 29.25 33.7712 28.6459L33.167 29.7084ZM27.1462 38.125C30.4587 41.25 33.3337 42.4584 34.6253 41.6667C35.9587 40.9375 36.3545 37.875 35.292 33.4167C33.6878 33.75 32.0003 34 30.292 34.1667C29.292 35.5625 28.2295 36.8959 27.1462 38.125ZM16.8337 20.2917L17.4587 19.2292C16.8128 19.3334 16.1878 19.4375 15.6253 19.5625C15.7712 20.1459 16.0003 20.75 16.2295 21.3542L16.8337 20.2917ZM22.8545 11.875C19.542 8.75002 16.667 7.54169 15.3545 8.33336C14.042 9.06252 13.6462 12.125 14.7087 16.5834C16.3608 16.2444 18.0298 15.994 19.7087 15.8334C20.7087 14.4375 21.7712 13.1042 22.8545 11.875Z" fill="#167C80"/>
</svg>
