<svg width="50" height="50" viewBox="0 0 50 50" fill="none" xmlns="http://www.w3.org/2000/svg">
<path d="M16.1279 36C7.15601 29.2563 4.33882 17.2969 8.58413 7.16252C8.18726 7.61565 7.79976 8.0844 7.42788 8.57502C-0.656491 19.3344 1.16851 34.3625 11.5154 42.1406C21.8591 49.9188 36.8029 47.5 44.8935 36.7407C45.2638 36.25 45.6029 35.7485 45.9294 35.2407C37.3701 42.1313 25.1013 42.7453 16.1326 36.0016L16.1279 36ZM21.3466 29.0594C28.7919 34.6563 39.4779 33.0656 45.6701 25.625C40.0294 29.75 31.4669 29.4922 24.7919 24.475C18.1169 19.4578 15.4935 11.2969 17.8904 4.7344C12.4623 12.75 13.9013 23.461 21.3466 29.0594ZM29.1279 18.7125C34.2123 22.536 41.856 20.9594 46.2638 15.2094C42.1935 18.2094 36.3544 18.2641 31.9544 14.9531C27.5482 11.6438 25.9763 6.01877 27.7357 1.27502C23.4326 7.10784 24.0419 14.8875 29.1279 18.7125Z" fill="#167C80"/>
</svg>
