<svg width="50" height="50" viewBox="0 0 50 50" fill="none" xmlns="http://www.w3.org/2000/svg">
<path d="M41.6663 8.33331L37.4997 38.5416L24.9997 42.7083L12.4997 38.5416L8.33301 8.33331H41.6663Z" stroke="#167C80" stroke-width="4.16667" stroke-linecap="round" stroke-linejoin="round"/>
<path d="M15.625 16.6666H21.875V33.3333L17.7083 31.25M34.375 16.6666H29.1667C28.8904 16.6666 28.6254 16.7764 28.4301 16.9717C28.2347 17.1671 28.125 17.432 28.125 17.7083V23.9583C28.125 24.2346 28.2347 24.4995 28.4301 24.6949C28.6254 24.8902 28.8904 25 29.1667 25H32.1313C32.2804 25 32.4277 25.032 32.5634 25.0939C32.699 25.1558 32.8198 25.246 32.9176 25.3586C33.0153 25.4712 33.0878 25.6034 33.1301 25.7464C33.1723 25.8894 33.1834 26.0398 33.1625 26.1875L32.2917 32.2916L28.125 33.3333" stroke="#167C80" stroke-width="4.16667" stroke-linecap="round" stroke-linejoin="round"/>
</svg>
